<svg id="Laag_1" data-name="Laag 1" xmlns="http://www.w3.org/2000/svg" viewBox="0 0 27.3 27.3"><defs><style>.cls-1{fill:none;stroke:blue;stroke-miterlimit:10;}.cls-2{fill:blue;}</style></defs><circle class="cls-1" cx="13.65" cy="13.65" r="13.15"/><path class="cls-2" d="M297.5,411.33a9.67,9.67,0,1,0,9.67,9.67A9.67,9.67,0,0,0,297.5,411.33Zm-7.17,7.95A1.7,1.7,0,1,1,292,421,1.71,1.71,0,0,1,290.33,419.28ZM293,427a1.71,1.71,0,1,1,1.7-1.7A1.7,1.7,0,0,1,293,427Zm4-10a1.71,1.71,0,1,1,1.7-1.7A1.7,1.7,0,0,1,297,417Zm4,10a1.71,1.71,0,1,1,1.7-1.7A1.7,1.7,0,0,1,301,427Zm1-6a1.71,1.71,0,1,1,1.7-1.7A1.7,1.7,0,0,1,302,421Z" transform="translate(-283.85 -407.35)"/></svg>