<svg xmlns="http://www.w3.org/2000/svg" viewBox="0 0 208.03 209.31"><defs><style>.cls-1,.cls-2{fill:none;stroke:#fff;stroke-linejoin:round;stroke-width:9px;}.cls-2{stroke-linecap:round;}</style></defs><g id="Laag_2" data-name="Laag 2"><path class="cls-1" d="M266,385.36a70.63,70.63,0,0,0-58.17,110.71l-7.44,23.63,23.11-7.28A70.64,70.64,0,1,0,266,385.36Z" transform="translate(-190.86 -321.83)"/><path class="cls-2" d="M309.74,451.9a43.31,43.31,0,0,1-86.61,0" transform="translate(-190.86 -321.83)"/><path class="cls-1" d="M381.36,442l7.78,24.69L365,459.08A73.4,73.4,0,0,1,337.54,472a73.55,73.55,0,0,0-88.43-90.27A73.81,73.81,0,1,1,381.36,442Z" transform="translate(-190.86 -321.83)"/></g></svg>