<svg id="Laag_1" data-name="Laag 1" xmlns="http://www.w3.org/2000/svg" viewBox="0 0 49.52 49.52"><defs><style>.cls-1{fill:#2a4b9b;}</style></defs><path class="cls-1" d="M314.25,400.86a3.89,3.89,0,0,1,3.89,3.89v32.5a3.89,3.89,0,0,1-3.89,3.89h-32.5a3.89,3.89,0,0,1-3.89-3.89v-32.5a3.89,3.89,0,0,1,3.89-3.89h32.5m0-4.62h-32.5a8.52,8.52,0,0,0-8.51,8.51v32.5a8.52,8.52,0,0,0,8.51,8.51h32.5a8.52,8.52,0,0,0,8.51-8.51v-32.5a8.52,8.52,0,0,0-8.51-8.51Z" transform="translate(-273.24 -396.24)"/><path class="cls-1" d="M298,411.46a9.54,9.54,0,0,1,0,19.08h0a9.54,9.54,0,0,1,0-19.08h0m0-4.61A14.15,14.15,0,1,0,312.15,421,14.17,14.17,0,0,0,298,406.85Z" transform="translate(-273.24 -396.24)"/><rect class="cls-1" x="35.05" y="7.7" width="6.77" height="6.77" rx="1.98"/></svg>