<svg id="Laag_1" data-name="Laag 1" xmlns="http://www.w3.org/2000/svg" viewBox="0 0 50.04 50.04"><defs><style>.cls-1{fill:#2a4b9b;}.cls-2{fill:#fff;}</style></defs><path class="cls-1" d="M273,396v50h50V396Zm14.52,44.14h-7.94V414.59h7.94Zm-4-28.9a4.67,4.67,0,1,1,4.66-4.67A4.67,4.67,0,0,1,283.53,411.22Zm33.61,28.9h-8V425.83s0-4.94-4.2-4.94c-2.93,0-4.13,2.81-4.58,4.5v14.73h-7.94V414.59h7.94v2.81a9.23,9.23,0,0,1,9-3.31c6,1.14,7.8,3.56,7.8,12.37Z" transform="translate(-272.98 -395.98)"/><path class="cls-2" d="M300.37,417.4v8a9.55,9.55,0,0,0-.26,1.26v-8.91S300.2,417.61,300.37,417.4Z" transform="translate(-272.98 -395.98)"/><path class="cls-2" d="M300.37,417.4v8a9.55,9.55,0,0,0-.26,1.26v-8.91S300.2,417.61,300.37,417.4Z" transform="translate(-272.98 -395.98)"/></svg>