<svg id="Laag_1" data-name="Laag 1" xmlns="http://www.w3.org/2000/svg" viewBox="0 0 50.06 50.06"><defs><style>.cls-1{fill:#2a4b9b;}</style></defs><path class="cls-1" d="M298,396a25,25,0,0,0-9,48.36,28,28,0,0,1,.07-4.81c.33-2.39,3-13.13,3-13.13s-2.6-5.32,1-8.58,6.51,1.2,5.32,4.34-2.73,7.92-.61,9.23,8,2.84,10-7.64-7.92-12.22-11-11.68-12.88,2.82-8,15.95l-.83,3.37s-6.62-.54-5.43-11.4,13.67-13.34,19-12,14.54,6.29,11.07,18.12-12.15,10.64-12.15,10.64-3.69-.35-5.21-2.72l-1.52,6.08s-1.59,3.32-2.51,5A25,25,0,1,0,298,396Z" transform="translate(-272.97 -395.97)"/></svg>