<svg id="Laag_1" data-name="Laag 1" xmlns="http://www.w3.org/2000/svg" viewBox="0 0 210 263.33"><defs><style>.cls-1{fill:#0000a4;}</style></defs><path class="cls-1" d="M960,397.67a40.4,40.4,0,1,1-40.4,40.4,40.44,40.44,0,0,1,40.4-40.4m0-24a64.4,64.4,0,1,0,64.4,64.4,64.4,64.4,0,0,0-64.4-64.4Z" transform="translate(-855 -373.67)"/><path class="cls-1" d="M979.18,530.72A61.89,61.89,0,0,1,1041,592.54,20.49,20.49,0,0,1,1020.54,613H899.46A20.49,20.49,0,0,1,879,592.54a61.89,61.89,0,0,1,61.82-61.82h38.36m0-24H940.82A85.82,85.82,0,0,0,855,592.54h0A44.47,44.47,0,0,0,899.46,637h121.08A44.47,44.47,0,0,0,1065,592.54h0a85.82,85.82,0,0,0-85.82-85.82Z" transform="translate(-855 -373.67)"/></svg>