<svg id="Laag_1" data-name="Laag 1" xmlns="http://www.w3.org/2000/svg" viewBox="0 0 210 263.33"><defs><style>.cls-1{fill:#fff;}</style></defs><path class="cls-1" d="M960,382.67a55.4,55.4,0,1,1-55.4,55.4,55.46,55.46,0,0,1,55.4-55.4m0-9a64.4,64.4,0,1,0,64.4,64.4,64.4,64.4,0,0,0-64.4-64.4Z" transform="translate(-855 -373.67)"/><path class="cls-1" d="M979.18,515.72A76.91,76.91,0,0,1,1056,592.54,35.5,35.5,0,0,1,1020.54,628H899.46A35.5,35.5,0,0,1,864,592.54a76.91,76.91,0,0,1,76.82-76.82h38.36m0-9H940.82A85.82,85.82,0,0,0,855,592.54h0A44.47,44.47,0,0,0,899.46,637h121.08A44.47,44.47,0,0,0,1065,592.54h0a85.82,85.82,0,0,0-85.82-85.82Z" transform="translate(-855 -373.67)"/></svg>