<svg id="Laag_1" data-name="Laag 1" xmlns="http://www.w3.org/2000/svg" viewBox="0 0 49.92 41.41"><defs><style>.cls-1{fill:#2a4b9b;}</style></defs><path class="cls-1" d="M323.48,405.36l-5.45,2c3.84-3.19,4-6,4-6a9.11,9.11,0,0,1-6.43,2h0a10.43,10.43,0,0,0-17.86,7.32,10.69,10.69,0,0,0,.18,2h0c-11.07,1.88-21.66-10.41-21.66-10.41-3.73,9.17,3.32,14.12,3.32,14.12a28.39,28.39,0,0,1-4.92-1.47c.66,8.52,8.65,10.65,8.65,10.65h-4.66a9.47,9.47,0,0,0,4.75,5.71l-9.83,5.57a29,29,0,0,0,45-24.17c0-.45,0-.89,0-1.34C319.92,410.6,323.48,405.36,323.48,405.36Z" transform="translate(-273.56 -400.3)"/></svg>