<svg id="Laag_1" data-name="Laag 1" xmlns="http://www.w3.org/2000/svg" viewBox="0 0 337.4 50.48"><defs><style>.cls-1{fill:#e8cf20;}</style></defs><path class="cls-1" d="M151.9,147.3,159.15,162a1.19,1.19,0,0,0,.9.65L176.28,165a1.19,1.19,0,0,1,.66,2L165.2,178.5a1.19,1.19,0,0,0-.34,1.06l2.77,16.16A1.19,1.19,0,0,1,165.9,197l-14.52-7.63a1.15,1.15,0,0,0-1.11,0L135.75,197a1.19,1.19,0,0,1-1.72-1.26l2.77-16.16a1.19,1.19,0,0,0-.34-1.06l-11.75-11.45a1.19,1.19,0,0,1,.66-2l16.23-2.36a1.17,1.17,0,0,0,.9-.65l7.26-14.71A1.2,1.2,0,0,1,151.9,147.3Z" transform="translate(-124.35 -146.64)"/><path class="cls-1" d="M223,147.3,230.27,162a1.16,1.16,0,0,0,.89.65L247.4,165a1.19,1.19,0,0,1,.66,2L236.31,178.5a1.19,1.19,0,0,0-.34,1.06l2.77,16.16A1.19,1.19,0,0,1,237,197l-14.52-7.63a1.13,1.13,0,0,0-1.1,0L206.87,197a1.19,1.19,0,0,1-1.73-1.26l2.77-16.16a1.19,1.19,0,0,0-.34-1.06l-11.75-11.45a1.19,1.19,0,0,1,.66-2l16.24-2.36a1.17,1.17,0,0,0,.89-.65l7.26-14.71A1.2,1.2,0,0,1,223,147.3Z" transform="translate(-124.35 -146.64)"/><path class="cls-1" d="M294.12,147.3,301.38,162a1.17,1.17,0,0,0,.89.65L318.51,165a1.19,1.19,0,0,1,.66,2L307.42,178.5a1.19,1.19,0,0,0-.34,1.06l2.77,16.16a1.19,1.19,0,0,1-1.73,1.26l-14.52-7.63a1.13,1.13,0,0,0-1.1,0L278,197a1.19,1.19,0,0,1-1.73-1.26L279,179.56a1.19,1.19,0,0,0-.34-1.06l-11.75-11.45a1.19,1.19,0,0,1,.66-2l16.24-2.36a1.17,1.17,0,0,0,.89-.65L292,147.3A1.2,1.2,0,0,1,294.12,147.3Z" transform="translate(-124.35 -146.64)"/><path class="cls-1" d="M365.23,147.3,372.49,162a1.17,1.17,0,0,0,.9.65L389.62,165a1.19,1.19,0,0,1,.66,2L378.53,178.5a1.19,1.19,0,0,0-.34,1.06L381,195.72a1.19,1.19,0,0,1-1.73,1.26l-14.51-7.63a1.15,1.15,0,0,0-1.11,0L349.09,197a1.19,1.19,0,0,1-1.73-1.26l2.77-16.16a1.19,1.19,0,0,0-.34-1.06l-11.74-11.45a1.19,1.19,0,0,1,.66-2l16.23-2.36a1.16,1.16,0,0,0,.89-.65l7.26-14.71A1.2,1.2,0,0,1,365.23,147.3Z" transform="translate(-124.35 -146.64)"/><path class="cls-1" d="M436.34,147.3,443.6,162a1.17,1.17,0,0,0,.9.65L460.73,165a1.19,1.19,0,0,1,.66,2L449.64,178.5a1.19,1.19,0,0,0-.34,1.06l2.77,16.16a1.19,1.19,0,0,1-1.72,1.26l-14.52-7.63a1.15,1.15,0,0,0-1.11,0L420.2,197a1.19,1.19,0,0,1-1.73-1.26l2.78-16.16a1.23,1.23,0,0,0-.35-1.06l-11.74-11.45a1.19,1.19,0,0,1,.66-2l16.23-2.36a1.19,1.19,0,0,0,.9-.65l7.26-14.71A1.19,1.19,0,0,1,436.34,147.3Z" transform="translate(-124.35 -146.64)"/></svg>